<svg width="400" height="400" viewBox="0 0 400 400" fill="none" xmlns="http://www.w3.org/2000/svg">
<rect x="5" y="5" width="390" height="390" rx="35" fill="#27D0FF" stroke="black" stroke-width="10"/>
<line x1="297" y1="355" x2="357" y2="355" stroke="black" stroke-width="10"/>
<line x1="212" y1="355" x2="272" y2="355" stroke="black" stroke-width="10"/>
<line x1="127" y1="355" x2="187" y2="355" stroke="black" stroke-width="10"/>
<line x1="42" y1="355" x2="102" y2="355" stroke="black" stroke-width="10"/>
<line x1="233.33" y1="184.5" x2="263.33" y2="236.462" stroke="black" stroke-width="10"/>
<line x1="233.175" y1="183.5" x2="203.175" y2="235.462" stroke="black" stroke-width="10"/>
<line x1="233" y1="126" x2="233" y2="186" stroke="black" stroke-width="10"/>
<line x1="172.958" y1="139" x2="292.958" y2="138" stroke="black" stroke-width="10"/>
<circle cx="233" cy="103" r="25" fill="black"/>
<line x1="233" y1="51" x2="233" y2="81" stroke="black" stroke-width="10"/>
<line x1="83.6384" y1="111.79" x2="150.29" y2="45.1384" stroke="black" stroke-width="10"/>
<line x1="55" y1="296" x2="115" y2="296" stroke="black" stroke-width="10"/>
<line x1="85" y1="291" x2="85" y2="51" stroke="black" stroke-width="10"/>
<path d="M80 46H320" stroke="black" stroke-width="10"/>
</svg>
